
nColumns=19
nRows=69
DataType=double
version=3
OpenSimVersion=4.4-2022-10-11-798caa840
endheader
time	ground_force_calcn_r_vx	ground_force_calcn_r_vy	ground_force_calcn_r_vz	ground_force_calcn_r_px	ground_force_calcn_r_py	ground_force_calcn_r_pz	ground_force_calcn_r_mx	ground_force_calcn_r_my	ground_force_calcn_r_mz	ground_force_calcn_l_vx	ground_force_calcn_l_vy	ground_force_calcn_l_vz	ground_force_calcn_l_px	ground_force_calcn_l_py	ground_force_calcn_l_pz	ground_force_calcn_l_mx	ground_force_calcn_l_my	ground_force_calcn_l_mz
0.02	3.0215	34.0301	5.40432	0.11747	0	-0.147479	0.0329139	0.370698	0.0588706	0	0	0	0	0	0	0	0	0
0.03	1.63014	54.9243	6.28071	0.136966	0	-0.148544	0.01013	0.34131	0.0390295	0	0	0	0	0	0	0	0	0
0.04	-0.551354	80.5218	7.03207	0.14872	0	-0.148594	-0.00220871	0.322568	0.0281703	0	0	0	0	0	0	0	0	0
0.05	-3.69121	110.898	7.55342	0.157111	0	-0.148321	-0.0101066	0.30364	0.0206814	0	0	0	0	0	0	0	0	0
0.06	-7.94777	145.823	7.71695	0.163801	0	-0.147913	-0.0152428	0.27967	0.0148002	0	0	0	0	0	0	0	0	0
0.07000000000000001	-13.3851	184.778	7.38232	0.169568	0	-0.147427	-0.0179825	0.248244	0.00991797	0	0	0	0	0	0	0	0	0
0.08	-19.8963	227.015	6.41218	0.174812	0	-0.146881	-0.0182686	0.208444	0.00588763	0	0	0	0	0	0	0	0	0
0.09	-27.2512	271.552	4.69491	0.179754	0	-0.146282	-0.0161634	0.161065	0.00278467	0	0	0	0	0	0	0	0	0
0.1	-35.1541	317.184	2.16877	0.184524	0	-0.14564	-0.0121239	0.10939	0.000747963	0	0	0	0	0	0	0	0	0
0.11	-43.264	362.578	-1.1477	0.189204	0	-0.14497	-0.00721458	0.0604625	-0.000191388	0	0	0	0	0	0	0	0	0
0.12	-51.2289	406.442	-5.1339	0.193839	0	-0.144293	-0.00319099	0.0253168	-0.000319785	0	0	0	0	0	0	0	0	0
0.13	-58.7226	447.684	-9.57864	0.19845	0	-0.143634	-0.00208768	0.0159159	-0.000340535	0	0	0	0	0	0	0	0	0
0.14	-65.4794	485.538	-14.2308	0.203047	0	-0.143016	-0.00546361	0.0405134	-0.00118742	0	0	0	0	0	0	0	0	0
0.15	-71.3173	519.586	-18.8436	0.207632	0	-0.142457	-0.014018	0.102129	-0.00370385	0	0	0	0	0	0	0	0	0
0.16	-76.1204	549.6609999999999	-23.186	0.212197	0	-0.141971	-0.0276514	0.199669	-0.008422529999999999	0	0	0	0	0	0	0	0	0
0.17	-79.82129999999999	575.716	-27.0586	0.216726	0	-0.141567	-0.045452	0.327825	-0.0154077	0	0	0	0	0	0	0	0	0
0.18	-82.3973	597.732	-30.3218	0.221203	0	-0.141249	-0.0657312	0.476832	-0.0241888	0	0	0	0	0	0	0	0	0
0.19	-83.8608	615.681	-32.9076	0.225615	0	-0.141012	-0.0864144	0.634428	-0.0339096	0	0	0	0	0	0	0	0	0
0.2	-84.254	629.52	-34.8158	0.229954	0	-0.140848	-0.105486	0.788161	-0.0435894	0	0	0	0	0	0	0	0	0
0.21	-83.648	639.217	-36.1026	0.234219	0	-0.140742	-0.121301	0.926956	-0.0523539	0	0	0	0	0	0	0	0	0
0.22	-82.1408	644.783	-36.8588	0.238419	0	-0.140681	-0.132778	1.04227	-0.0595811	0	0	0	0	0	0	0	0	0
0.23	-79.8531	646.312	-37.1845	0.242564	0	-0.140651	-0.1394	1.12827	-0.0649132	0	0	0	0	0	0	0	0	0
0.24	-76.9177	644.0069999999999	-37.1706	0.246669	0	-0.140643	-0.14109	1.1813	-0.0681819	0	0	0	0	0	0	0	0	0
0.25	-73.4688	638.198	-36.8881	0.250753	0	-0.140655	-0.13806	1.19928	-0.06931909999999999	0	0	0	0	0	0	0	0	0
0.26	-69.6344	629.337	-36.386	0.254827	0	-0.140685	-0.130685	1.1811	-0.0682869	0	0	0	0	0	0	0	0	0
0.27	-65.52970000000001	617.975	-35.6948	0.2589	0	-0.140741	-0.119414	1.12613	-0.0650464	0	0	0	0	0	0	0	0	0
0.28	-61.2534	604.737	-34.8344	0.262977	0	-0.14083	-0.104731	1.03398	-0.0595598	0	0	0	0	0	0	0	0	0
0.29	-56.8857	590.285	-33.8215	0.267057	0	-0.14096	-0.0871601	0.904433	-0.0518211	0	0	0	0	0	0	0	0	0
0.3	-52.4872	575.287	-32.676	0.271131	0	-0.141145	-0.0672965	0.737604	-0.0418955	0	0	0	0	0	0	0	0	0
0.31	-48.1007	560.385	-31.4254	0.27519	0	-0.141389	-0.0458367	0.534009	-0.0299463	0	0	0	0	0	0	0	0	0
0.32	-43.7522	546.171	-30.1054	0.279218	0	-0.1417	-0.0236098	0.294727	-0.0162456	0	0	0	0	0	0	0	0	0
0.33	-39.4525	533.168	-28.7589	0.283197	0	-0.142082	-0.00159032	0.0214918	-0.00115926	0	0	0	0	0	0	0	0	0
0.34	-35.1985	521.819	-27.4332	0.287106	0	-0.142533	0.0191138	-0.283364	0.0148971	0	0	0	0	0	0	0	0	0
0.35	-30.9751	512.485	-26.1775	0.290921	0	-0.143049	0.0372887	-0.616944	0.0315132	0	0	0	0	0	0	0	0	0
0.36	-26.7576	505.444	-25.0383	0.29462	0	-0.143626	0.0516603	-0.975849	0.0483408	0	0	0	0	0	0	0	0	0
0.37	-22.5136	500.895	-24.056	0.298179	0	-0.144256	0.0609568	-1.3562	0.0651331	0	0	0	0	0	0	0	0	0
0.38	-18.2043	498.96	-23.2618	0.301584	0	-0.14493	0.0639825	-1.75369	0.0817581	0	0	0	0	0	0	0	0	0
0.39	-13.7871	499.689	-22.6758	0.304817	0	-0.145637	0.0596962	-2.16359	0.0981832	0	0	0	0	0	0	0	0	0
0.4	-9.21678	503.062	-22.306	0.307872	0	-0.146371	0.0472837	-2.5808	0.114434	0	0	0	0	0	0	0	0	0
0.41	-4.44895	508.994	-22.1484	0.310746	0	-0.147123	0.0262218	-2.99998	0.130541	0	0	0	0	0	0	0	0	0
0.42	0.55735	517.337	-22.1862	0.313442	0	-0.147886	-0.00367987	-3.41569	0.146483	0	0	0	0	0	0	0	0	0
0.43	5.83652	527.885	-22.3909	0.315967	0	-0.148654	-0.0422622	-3.82241	0.162132	0	0	0	0	0	0	0	0	0
0.44	11.413	540.377	-22.7239	0.318333	0	-0.149423	-0.0890107	-4.21442	0.177225	0	0	0	0	0	0	0	0	0
0.45	17.2973	554.497	-23.1394	0.320547	0	-0.150186	-0.143047	-4.58564	0.191361	0	0	0	0	0	0	0	0	0
0.46	23.482	569.871	-23.5869	0.322625	0	-0.150939	-0.203121	-4.92942	0.204028	0	0	0	0	0	0	0	0	0
0.47	29.9399	586.057	-24.0141	0.324575	0	-0.151674	-0.267618	-5.23846	0.21465	0	0	0	0	0	0	0	0	0
0.48	36.6223	602.5309999999999	-24.3703	0.326409	0	-0.152387	-0.334585	-5.50478	0.22265	0	0	0	0	0	0	0	0	0
0.49	43.4598	618.681	-24.6082	0.328139	0	-0.153069	-0.401805	-5.71998	0.227514	0	0	0	0	0	0	0	0	0
0.5	50.3639	633.797	-24.6848	0.329778	0	-0.153718	-0.466916	-5.87583	0.228849	0	0	0	0	0	0	0	0	0
0.51	57.2291	647.076	-24.564	0.331338	0	-0.154324	-0.527559	-5.96498	0.22644	0	0	0	0	0	0	0	0	0
0.52	63.9339	657.643	-24.2175	0.332833	0	-0.154885	-0.581521	-5.9817	0.220274	0	0	0	0	0	0	0	0	0
0.53	70.3413	664.587	-23.627	0.334274	0	-0.155397	-0.626861	-5.92261	0.210557	0	0	0	0	0	0	0	0	0
0.54	76.298	667.022	-22.7849	0.335674	0	-0.155855	-0.661987	-5.78731	0.197689	0	0	0	0	0	0	0	0	0
0.55	81.6341	664.143	-21.694	0.337044	0	-0.156257	-0.685704	-5.57861	0.182224	8.21468	29.1706	-4.34407	0.736401	0	-0.24984	0.11279	0.400519	-0.0596452
0.5600000000000001	86.16679999999999	655.2859999999999	-20.3681	0.338397	0	-0.156599	-0.697269	-5.30263	0.16482	7.92252	48.3889	-4.4235	0.769451	0	-0.262057	0.0778075	0.475229	-0.0434434
0.57	89.7059	639.976	-18.8302	0.339744	0	-0.156877	-0.696434	-4.96847	0.146189	6.79135	71.93510000000001	-4.3378	0.788027	0	-0.267971	0.0488022	0.516921	-0.0311712
0.58	92.0641	617.972	-17.1129	0.341097	0	-0.157088	-0.683467	-4.58771	0.127043	4.54924	99.8811	-4.02261	0.800482	0	-0.271299	0.0249057	0.54682	-0.0220226
0.59	93.0702	589.297	-15.2574	0.342471	0	-0.15723	-0.659146	-4.17355	0.108056	0.927966	132.048	-3.41162	0.809858	0	-0.273365	0.00402535	0.5727989999999999	-0.014799
0.6	92.58710000000001	554.276	-13.3131	0.343883	0	-0.157301	-0.6247200000000001	-3.73991	0.0898284	-4.18554	168.095	-2.43682	0.817515	0	-0.274746	-0.0149103	0.598812	-0.008680810000000001
0.61	90.5321	513.551	-11.3365	0.345354	0	-0.1573	-0.581807	-3.30035	0.0728543	-10.7003	207.565	-1.02752	0.824122	0	-0.275726	-0.0323195	0.626939	-0.00310357
0.62	86.899	468.08	-9.389810000000001	0.346908	0	-0.15723	-0.532241	-2.86691	0.057511	-18.4077	249.806	0.869017	0.830041	0	-0.276452	-0.0484709	0.657782	0.00228828
0.63	81.7743	419.104	-7.53697	0.34857	0	-0.157092	-0.477882	-2.44921	0.0440453	-27.0115	293.91	3.27049	0.835473	0	-0.277006	-0.0634661	0.690568	0.00768431
0.64	75.34439999999999	368.079	-5.83652	0.350371	0	-0.156887	-0.420477	-2.05415	0.0325721	-36.1337	338.752	6.14049	0.840543	0	-0.277431	-0.0770713	0.72254	0.0130973
0.65	67.88890000000001	316.568	-4.33404	0.352346	0	-0.156616	-0.361665	-1.68646	0.0230888	-45.3493	383.09	9.379849999999999	0.8453270000000001	0	-0.277748	-0.0886554	0.748919	0.0183371
0.66	59.7551	266.117	-3.05723	0.35454	0	-0.156273	-0.303006	-1.34943	0.0155026	-54.2247	425.719	12.8472	0.849877	0	-0.277968	-0.09746539999999999	0.765204	0.023092
0.67	51.3154	218.119	-2.01424	0.357025	0	-0.155844	-0.245992	-1.04561	0.00965572	-62.3796	465.626	16.3981	0.854234	0	-0.278098	-0.103108	0.769638	0.0271046
0.68	42.9248	173.728	-1.19487	0.359923	0	-0.155297	-0.19197	-0.7769509999999999	0.00534371	-69.5273	502.055	19.9004	0.858436	0	-0.278147	-0.105602	0.7625459999999999	0.0302257
0.6899999999999999	34.8909	133.797	-0.574728	0.363451	0	-0.154572	-0.142013	-0.544578	0.00233926	-75.4687	534.5069999999999	23.2262	0.862515	0	-0.278119	-0.105151	0.744734	0.0323613
0.7	27.4545	98.8587	-0.121451	0.368027	0	-0.15355	-0.09678970000000001	-0.348523	0.00042817	-80.0904	562.681	26.2541	0.866493	0	-0.278017	-0.102176	0.717842	0.0334938
